M48
; DRILL file {KiCad 7.0.11-rc1} date Wed Feb 26 22:49:17 2025
; FORMAT={-:-/ absolute / metric / decimal}
; #@! TF.CreationDate,2025-02-26T22:49:17-03:00
; #@! TF.GenerationSoftware,Kicad,Pcbnew,7.0.11-rc1
; #@! TF.FileFunction,Plated,1,2,PTH
FMAT,2
METRIC
; #@! TA.AperFunction,Plated,PTH,ViaDrill
T1C0.600
; #@! TA.AperFunction,Plated,PTH,ComponentDrill
T2C0.800
; #@! TA.AperFunction,Plated,PTH,ComponentDrill
T3C0.864
; #@! TA.AperFunction,Plated,PTH,ComponentDrill
T4C1.000
; #@! TA.AperFunction,Plated,PTH,ComponentDrill
T5C1.016
; #@! TA.AperFunction,Plated,PTH,ComponentDrill
T6C1.020
%
G90
G05
T1
X110.936Y-110.789
X119.438Y-96.981
X123.276Y-130.712
X124.46Y-62.738
X125.062Y-132.498
X129.032Y-106.934
X129.138Y-131.96
X131.115Y-112.68
X133.732Y-143.012
X136.078Y-98.303
X136.078Y-113.945
X137.124Y-64.192
X143.389Y-60.722
X144.043Y-109.146
X144.189Y-56.13
X145.601Y-86.555
X145.601Y-91.235
X149.076Y-75.208
X153.394Y-81.353
X154.073Y-99.271
X154.133Y-55.267
X155.625Y-119.185
X155.786Y-122.658
X156.657Y-83.958
X158.478Y-62.176
X159.724Y-60.701
X163.18Y-71.82
X164.404Y-57.818
X169.418Y-92.964
X170.761Y-146.143
X172.017Y-64.992
X173.343Y-131.382
X174.841Y-148.0
T2
X139.994Y-92.71
X140.716Y-64.262
X140.716Y-69.596
X140.716Y-73.66
X141.209Y-103.886
X141.224Y-99.836
X141.224Y-108.712
X142.494Y-92.71
X146.304Y-140.716
X147.066Y-145.542
X147.614Y-92.71
X148.336Y-64.262
X148.336Y-69.596
X148.336Y-73.66
X148.829Y-103.886
X148.844Y-99.836
X148.844Y-108.712
X150.114Y-92.71
X151.892Y-68.834
X151.892Y-76.454
X152.908Y-102.87
X152.908Y-110.49
X152.908Y-113.792
X152.908Y-121.412
X152.908Y-124.46
X152.908Y-132.08
X153.924Y-140.716
X154.686Y-145.542
X154.94Y-88.646
X154.94Y-96.266
X158.79Y-72.136
X158.815Y-64.262
X160.528Y-57.658
X161.29Y-72.136
X161.315Y-64.262
X166.41Y-72.136
X166.435Y-64.516
X168.148Y-57.658
X168.91Y-72.136
X168.935Y-64.516
T3
X140.462Y-78.994
X140.462Y-81.534
X140.462Y-84.074
X140.462Y-86.614
X141.224Y-113.284
X141.224Y-115.824
X141.224Y-118.364
X141.224Y-120.904
X148.082Y-78.994
X148.082Y-81.534
X148.082Y-84.074
X148.082Y-86.614
X148.844Y-113.284
X148.844Y-115.824
X148.844Y-118.364
X148.844Y-120.904
X172.72Y-54.61
X172.72Y-57.15
X172.72Y-59.69
X172.72Y-62.23
X172.72Y-66.548
X172.72Y-69.088
X172.72Y-71.628
X172.72Y-74.168
X180.34Y-54.61
X180.34Y-57.15
X180.34Y-59.69
X180.34Y-62.23
X180.34Y-66.548
X180.34Y-69.088
X180.34Y-71.628
X180.34Y-74.168
T4
X140.457Y-140.97
X140.457Y-144.78
X142.033Y-126.529
X142.033Y-129.069
X142.033Y-131.609
X142.997Y-140.97
X142.997Y-144.78
X143.764Y-53.594
X146.304Y-53.594
X146.683Y-126.529
X146.683Y-129.069
X146.683Y-131.609
X148.844Y-53.594
X151.384Y-53.594
X153.924Y-53.594
X156.464Y-53.594
X159.004Y-53.594
X161.544Y-53.594
X164.084Y-53.594
X166.624Y-53.594
T5
X161.28Y-97.79
X161.28Y-100.33
X161.28Y-102.87
X161.28Y-105.41
X161.28Y-107.95
X161.28Y-110.49
X161.28Y-113.03
X161.28Y-115.57
X161.28Y-118.11
X161.28Y-120.65
X161.28Y-123.19
X161.28Y-125.73
X161.28Y-128.27
X161.28Y-130.81
X161.28Y-133.35
X161.28Y-135.89
X161.28Y-138.43
X161.28Y-140.97
X161.28Y-143.51
X161.28Y-146.05
X167.64Y-101.6
X170.18Y-101.6
X176.52Y-97.739
X176.52Y-100.33
X176.52Y-102.87
X176.52Y-105.41
X176.52Y-107.95
X176.52Y-110.49
X176.52Y-113.03
X176.52Y-115.57
X176.52Y-118.11
X176.52Y-120.65
X176.52Y-123.19
X176.52Y-125.73
X176.52Y-128.27
X176.52Y-130.81
X176.52Y-133.35
X176.52Y-135.89
X176.52Y-138.43
X176.52Y-140.97
X176.52Y-143.51
X176.52Y-146.05
T6
X106.68Y-57.15
X106.68Y-59.69
X106.68Y-62.23
X106.68Y-64.77
X106.68Y-67.31
X106.68Y-69.85
X106.68Y-72.39
X106.68Y-74.93
X106.68Y-81.28
X106.68Y-83.82
X106.68Y-86.36
X106.68Y-88.9
X106.68Y-91.44
X106.68Y-93.98
X106.68Y-96.52
X106.68Y-99.06
X106.68Y-101.6
X106.68Y-104.14
X106.68Y-106.68
X106.68Y-109.22
X106.68Y-111.76
X106.68Y-114.3
X106.68Y-116.84
X106.68Y-119.38
X106.68Y-121.92
X106.68Y-124.46
X106.68Y-127.0
X106.68Y-129.54
X106.68Y-132.08
X106.68Y-134.62
X106.68Y-137.16
X106.68Y-139.7
X106.68Y-142.24
X106.68Y-144.78
X106.68Y-147.32
X113.62Y-68.58
X113.62Y-71.12
X113.62Y-73.66
X113.62Y-76.2
X113.62Y-78.74
X113.62Y-81.28
X113.62Y-83.82
X113.62Y-86.36
X113.62Y-88.9
X113.62Y-91.44
X113.62Y-116.84
X113.62Y-119.38
X113.62Y-121.92
X113.62Y-124.46
X113.62Y-127.0
X113.62Y-129.54
X113.62Y-132.08
X113.62Y-134.62
X113.62Y-137.16
X113.62Y-139.7
X134.62Y-68.57
X134.62Y-71.11
X134.62Y-73.65
X134.62Y-76.19
X134.62Y-78.73
X134.62Y-81.27
X134.62Y-83.81
X134.62Y-86.35
X134.62Y-88.89
X134.62Y-91.43
X134.62Y-116.83
X134.62Y-119.37
X134.62Y-121.91
X134.62Y-124.45
X134.62Y-126.99
X134.62Y-129.53
X134.62Y-132.07
X134.62Y-134.61
X134.62Y-137.15
X134.62Y-139.69
X185.42Y-57.15
X185.42Y-59.69
X185.42Y-62.23
X185.42Y-64.77
X185.42Y-67.31
X185.42Y-69.85
X185.42Y-72.39
X185.42Y-74.93
X185.42Y-77.47
X185.42Y-80.01
X185.42Y-82.55
X185.42Y-85.09
X185.42Y-87.63
X185.42Y-90.17
X185.42Y-92.71
X185.42Y-95.25
X185.42Y-97.79
X185.42Y-100.33
X185.42Y-102.87
X185.42Y-105.41
X185.42Y-107.95
X185.42Y-110.49
X185.42Y-113.03
X185.42Y-115.57
X185.42Y-118.11
X185.42Y-120.65
X185.42Y-123.19
X185.42Y-125.73
X185.42Y-128.27
X185.42Y-130.81
X185.42Y-133.35
X185.42Y-135.89
X185.42Y-138.43
X185.42Y-140.97
X185.42Y-143.51
M30
