G04 #@! TF.GenerationSoftware,KiCad,Pcbnew,7.0.11-rc1*
G04 #@! TF.CreationDate,2025-02-26T22:47:44-03:00*
G04 #@! TF.ProjectId,SomadorInversor_vs2,536f6d61-646f-4724-996e-766572736f72,v04*
G04 #@! TF.SameCoordinates,Original*
G04 #@! TF.FileFunction,Legend,Bot*
G04 #@! TF.FilePolarity,Positive*
%FSLAX46Y46*%
G04 Gerber Fmt 4.6, Leading zero omitted, Abs format (unit mm)*
G04 Created by KiCad (PCBNEW 7.0.11-rc1) date 2025-02-26 22:47:44*
%MOMM*%
%LPD*%
G01*
G04 APERTURE LIST*
%ADD10C,0.300000*%
%ADD11R,1.600000X1.600000*%
%ADD12C,1.600000*%
%ADD13R,1.700000X1.700000*%
%ADD14O,1.700000X1.700000*%
%ADD15R,1.371600X1.371600*%
%ADD16C,1.371600*%
%ADD17O,1.600000X1.600000*%
%ADD18R,2.500000X1.800000*%
%ADD19O,2.500000X1.800000*%
%ADD20R,2.250000X1.727200*%
%ADD21O,2.250000X1.727200*%
%ADD22O,1.727200X1.727200*%
G04 APERTURE END LIST*
D10*
X119664876Y-85885998D02*
X119569638Y-85695522D01*
X119569638Y-85695522D02*
X119569638Y-85409808D01*
X119569638Y-85409808D02*
X119664876Y-85124093D01*
X119664876Y-85124093D02*
X119855352Y-84933617D01*
X119855352Y-84933617D02*
X120045828Y-84838379D01*
X120045828Y-84838379D02*
X120426780Y-84743141D01*
X120426780Y-84743141D02*
X120712495Y-84743141D01*
X120712495Y-84743141D02*
X121093447Y-84838379D01*
X121093447Y-84838379D02*
X121283923Y-84933617D01*
X121283923Y-84933617D02*
X121474400Y-85124093D01*
X121474400Y-85124093D02*
X121569638Y-85409808D01*
X121569638Y-85409808D02*
X121569638Y-85600284D01*
X121569638Y-85600284D02*
X121474400Y-85885998D01*
X121474400Y-85885998D02*
X121379161Y-85981236D01*
X121379161Y-85981236D02*
X120712495Y-85981236D01*
X120712495Y-85981236D02*
X120712495Y-85600284D01*
X121474400Y-87600284D02*
X121569638Y-87409808D01*
X121569638Y-87409808D02*
X121569638Y-87028855D01*
X121569638Y-87028855D02*
X121474400Y-86838379D01*
X121474400Y-86838379D02*
X121283923Y-86743141D01*
X121283923Y-86743141D02*
X120522019Y-86743141D01*
X120522019Y-86743141D02*
X120331542Y-86838379D01*
X120331542Y-86838379D02*
X120236304Y-87028855D01*
X120236304Y-87028855D02*
X120236304Y-87409808D01*
X120236304Y-87409808D02*
X120331542Y-87600284D01*
X120331542Y-87600284D02*
X120522019Y-87695522D01*
X120522019Y-87695522D02*
X120712495Y-87695522D01*
X120712495Y-87695522D02*
X120902971Y-86743141D01*
X121569638Y-88552665D02*
X120236304Y-88552665D01*
X120617257Y-88552665D02*
X120426780Y-88647903D01*
X120426780Y-88647903D02*
X120331542Y-88743141D01*
X120331542Y-88743141D02*
X120236304Y-88933617D01*
X120236304Y-88933617D02*
X120236304Y-89124094D01*
X121569638Y-90647903D02*
X120522019Y-90647903D01*
X120522019Y-90647903D02*
X120331542Y-90552665D01*
X120331542Y-90552665D02*
X120236304Y-90362189D01*
X120236304Y-90362189D02*
X120236304Y-89981236D01*
X120236304Y-89981236D02*
X120331542Y-89790760D01*
X121474400Y-90647903D02*
X121569638Y-90457427D01*
X121569638Y-90457427D02*
X121569638Y-89981236D01*
X121569638Y-89981236D02*
X121474400Y-89790760D01*
X121474400Y-89790760D02*
X121283923Y-89695522D01*
X121283923Y-89695522D02*
X121093447Y-89695522D01*
X121093447Y-89695522D02*
X120902971Y-89790760D01*
X120902971Y-89790760D02*
X120807733Y-89981236D01*
X120807733Y-89981236D02*
X120807733Y-90457427D01*
X120807733Y-90457427D02*
X120712495Y-90647903D01*
X121569638Y-92457427D02*
X119569638Y-92457427D01*
X121474400Y-92457427D02*
X121569638Y-92266951D01*
X121569638Y-92266951D02*
X121569638Y-91885998D01*
X121569638Y-91885998D02*
X121474400Y-91695522D01*
X121474400Y-91695522D02*
X121379161Y-91600284D01*
X121379161Y-91600284D02*
X121188685Y-91505046D01*
X121188685Y-91505046D02*
X120617257Y-91505046D01*
X120617257Y-91505046D02*
X120426780Y-91600284D01*
X120426780Y-91600284D02*
X120331542Y-91695522D01*
X120331542Y-91695522D02*
X120236304Y-91885998D01*
X120236304Y-91885998D02*
X120236304Y-92266951D01*
X120236304Y-92266951D02*
X120331542Y-92457427D01*
X121569638Y-93695522D02*
X121474400Y-93505046D01*
X121474400Y-93505046D02*
X121379161Y-93409808D01*
X121379161Y-93409808D02*
X121188685Y-93314570D01*
X121188685Y-93314570D02*
X120617257Y-93314570D01*
X120617257Y-93314570D02*
X120426780Y-93409808D01*
X120426780Y-93409808D02*
X120331542Y-93505046D01*
X120331542Y-93505046D02*
X120236304Y-93695522D01*
X120236304Y-93695522D02*
X120236304Y-93981237D01*
X120236304Y-93981237D02*
X120331542Y-94171713D01*
X120331542Y-94171713D02*
X120426780Y-94266951D01*
X120426780Y-94266951D02*
X120617257Y-94362189D01*
X120617257Y-94362189D02*
X121188685Y-94362189D01*
X121188685Y-94362189D02*
X121379161Y-94266951D01*
X121379161Y-94266951D02*
X121474400Y-94171713D01*
X121474400Y-94171713D02*
X121569638Y-93981237D01*
X121569638Y-93981237D02*
X121569638Y-93695522D01*
X121569638Y-95219332D02*
X120236304Y-95219332D01*
X120617257Y-95219332D02*
X120426780Y-95314570D01*
X120426780Y-95314570D02*
X120331542Y-95409808D01*
X120331542Y-95409808D02*
X120236304Y-95600284D01*
X120236304Y-95600284D02*
X120236304Y-95790761D01*
X121569638Y-97981237D02*
X120236304Y-97981237D01*
X120426780Y-97981237D02*
X120331542Y-98076475D01*
X120331542Y-98076475D02*
X120236304Y-98266951D01*
X120236304Y-98266951D02*
X120236304Y-98552666D01*
X120236304Y-98552666D02*
X120331542Y-98743142D01*
X120331542Y-98743142D02*
X120522019Y-98838380D01*
X120522019Y-98838380D02*
X121569638Y-98838380D01*
X120522019Y-98838380D02*
X120331542Y-98933618D01*
X120331542Y-98933618D02*
X120236304Y-99124094D01*
X120236304Y-99124094D02*
X120236304Y-99409808D01*
X120236304Y-99409808D02*
X120331542Y-99600285D01*
X120331542Y-99600285D02*
X120522019Y-99695523D01*
X120522019Y-99695523D02*
X121569638Y-99695523D01*
X120236304Y-101505047D02*
X121569638Y-101505047D01*
X120236304Y-100647904D02*
X121283923Y-100647904D01*
X121283923Y-100647904D02*
X121474400Y-100743142D01*
X121474400Y-100743142D02*
X121569638Y-100933618D01*
X121569638Y-100933618D02*
X121569638Y-101219333D01*
X121569638Y-101219333D02*
X121474400Y-101409809D01*
X121474400Y-101409809D02*
X121379161Y-101505047D01*
X121569638Y-102743142D02*
X121474400Y-102552666D01*
X121474400Y-102552666D02*
X121283923Y-102457428D01*
X121283923Y-102457428D02*
X119569638Y-102457428D01*
X120236304Y-103219333D02*
X120236304Y-103981237D01*
X119569638Y-103505047D02*
X121283923Y-103505047D01*
X121283923Y-103505047D02*
X121474400Y-103600285D01*
X121474400Y-103600285D02*
X121569638Y-103790761D01*
X121569638Y-103790761D02*
X121569638Y-103981237D01*
X121569638Y-104647904D02*
X120236304Y-104647904D01*
X119569638Y-104647904D02*
X119664876Y-104552666D01*
X119664876Y-104552666D02*
X119760114Y-104647904D01*
X119760114Y-104647904D02*
X119664876Y-104743142D01*
X119664876Y-104743142D02*
X119569638Y-104647904D01*
X119569638Y-104647904D02*
X119760114Y-104647904D01*
X120236304Y-105314571D02*
X120236304Y-106076475D01*
X121569638Y-105600285D02*
X119855352Y-105600285D01*
X119855352Y-105600285D02*
X119664876Y-105695523D01*
X119664876Y-105695523D02*
X119569638Y-105885999D01*
X119569638Y-105885999D02*
X119569638Y-106076475D01*
X121569638Y-106743142D02*
X120236304Y-106743142D01*
X120617257Y-106743142D02*
X120426780Y-106838380D01*
X120426780Y-106838380D02*
X120331542Y-106933618D01*
X120331542Y-106933618D02*
X120236304Y-107124094D01*
X120236304Y-107124094D02*
X120236304Y-107314571D01*
X121474400Y-108743142D02*
X121569638Y-108552666D01*
X121569638Y-108552666D02*
X121569638Y-108171713D01*
X121569638Y-108171713D02*
X121474400Y-107981237D01*
X121474400Y-107981237D02*
X121283923Y-107885999D01*
X121283923Y-107885999D02*
X120522019Y-107885999D01*
X120522019Y-107885999D02*
X120331542Y-107981237D01*
X120331542Y-107981237D02*
X120236304Y-108171713D01*
X120236304Y-108171713D02*
X120236304Y-108552666D01*
X120236304Y-108552666D02*
X120331542Y-108743142D01*
X120331542Y-108743142D02*
X120522019Y-108838380D01*
X120522019Y-108838380D02*
X120712495Y-108838380D01*
X120712495Y-108838380D02*
X120902971Y-107885999D01*
X120236304Y-110552666D02*
X122236304Y-110552666D01*
X121474400Y-110552666D02*
X121569638Y-110362190D01*
X121569638Y-110362190D02*
X121569638Y-109981237D01*
X121569638Y-109981237D02*
X121474400Y-109790761D01*
X121474400Y-109790761D02*
X121379161Y-109695523D01*
X121379161Y-109695523D02*
X121188685Y-109600285D01*
X121188685Y-109600285D02*
X120617257Y-109600285D01*
X120617257Y-109600285D02*
X120426780Y-109695523D01*
X120426780Y-109695523D02*
X120331542Y-109790761D01*
X120331542Y-109790761D02*
X120236304Y-109981237D01*
X120236304Y-109981237D02*
X120236304Y-110362190D01*
X120236304Y-110362190D02*
X120331542Y-110552666D01*
X120236304Y-112362190D02*
X121569638Y-112362190D01*
X120236304Y-111505047D02*
X121283923Y-111505047D01*
X121283923Y-111505047D02*
X121474400Y-111600285D01*
X121474400Y-111600285D02*
X121569638Y-111790761D01*
X121569638Y-111790761D02*
X121569638Y-112076476D01*
X121569638Y-112076476D02*
X121474400Y-112266952D01*
X121474400Y-112266952D02*
X121379161Y-112362190D01*
X121474400Y-114076476D02*
X121569638Y-113886000D01*
X121569638Y-113886000D02*
X121569638Y-113505047D01*
X121569638Y-113505047D02*
X121474400Y-113314571D01*
X121474400Y-113314571D02*
X121283923Y-113219333D01*
X121283923Y-113219333D02*
X120522019Y-113219333D01*
X120522019Y-113219333D02*
X120331542Y-113314571D01*
X120331542Y-113314571D02*
X120236304Y-113505047D01*
X120236304Y-113505047D02*
X120236304Y-113886000D01*
X120236304Y-113886000D02*
X120331542Y-114076476D01*
X120331542Y-114076476D02*
X120522019Y-114171714D01*
X120522019Y-114171714D02*
X120712495Y-114171714D01*
X120712495Y-114171714D02*
X120902971Y-113219333D01*
X120236304Y-115028857D02*
X121569638Y-115028857D01*
X120426780Y-115028857D02*
X120331542Y-115124095D01*
X120331542Y-115124095D02*
X120236304Y-115314571D01*
X120236304Y-115314571D02*
X120236304Y-115600286D01*
X120236304Y-115600286D02*
X120331542Y-115790762D01*
X120331542Y-115790762D02*
X120522019Y-115886000D01*
X120522019Y-115886000D02*
X121569638Y-115886000D01*
X121474400Y-117695524D02*
X121569638Y-117505048D01*
X121569638Y-117505048D02*
X121569638Y-117124095D01*
X121569638Y-117124095D02*
X121474400Y-116933619D01*
X121474400Y-116933619D02*
X121379161Y-116838381D01*
X121379161Y-116838381D02*
X121188685Y-116743143D01*
X121188685Y-116743143D02*
X120617257Y-116743143D01*
X120617257Y-116743143D02*
X120426780Y-116838381D01*
X120426780Y-116838381D02*
X120331542Y-116933619D01*
X120331542Y-116933619D02*
X120236304Y-117124095D01*
X120236304Y-117124095D02*
X120236304Y-117505048D01*
X120236304Y-117505048D02*
X120331542Y-117695524D01*
X121569638Y-118552667D02*
X120236304Y-118552667D01*
X119569638Y-118552667D02*
X119664876Y-118457429D01*
X119664876Y-118457429D02*
X119760114Y-118552667D01*
X119760114Y-118552667D02*
X119664876Y-118647905D01*
X119664876Y-118647905D02*
X119569638Y-118552667D01*
X119569638Y-118552667D02*
X119760114Y-118552667D01*
X121569638Y-120362191D02*
X120522019Y-120362191D01*
X120522019Y-120362191D02*
X120331542Y-120266953D01*
X120331542Y-120266953D02*
X120236304Y-120076477D01*
X120236304Y-120076477D02*
X120236304Y-119695524D01*
X120236304Y-119695524D02*
X120331542Y-119505048D01*
X121474400Y-120362191D02*
X121569638Y-120171715D01*
X121569638Y-120171715D02*
X121569638Y-119695524D01*
X121569638Y-119695524D02*
X121474400Y-119505048D01*
X121474400Y-119505048D02*
X121283923Y-119409810D01*
X121283923Y-119409810D02*
X121093447Y-119409810D01*
X121093447Y-119409810D02*
X120902971Y-119505048D01*
X120902971Y-119505048D02*
X120807733Y-119695524D01*
X120807733Y-119695524D02*
X120807733Y-120171715D01*
X120807733Y-120171715D02*
X120712495Y-120362191D01*
X121569638Y-121600286D02*
X121474400Y-121409810D01*
X121474400Y-121409810D02*
X121283923Y-121314572D01*
X121283923Y-121314572D02*
X119569638Y-121314572D01*
X124694400Y-88266950D02*
X124789638Y-88076474D01*
X124789638Y-88076474D02*
X124789638Y-87695521D01*
X124789638Y-87695521D02*
X124694400Y-87505045D01*
X124694400Y-87505045D02*
X124599161Y-87409807D01*
X124599161Y-87409807D02*
X124408685Y-87314569D01*
X124408685Y-87314569D02*
X123837257Y-87314569D01*
X123837257Y-87314569D02*
X123646780Y-87409807D01*
X123646780Y-87409807D02*
X123551542Y-87505045D01*
X123551542Y-87505045D02*
X123456304Y-87695521D01*
X123456304Y-87695521D02*
X123456304Y-88076474D01*
X123456304Y-88076474D02*
X123551542Y-88266950D01*
X124789638Y-89409807D02*
X124694400Y-89219331D01*
X124694400Y-89219331D02*
X124599161Y-89124093D01*
X124599161Y-89124093D02*
X124408685Y-89028855D01*
X124408685Y-89028855D02*
X123837257Y-89028855D01*
X123837257Y-89028855D02*
X123646780Y-89124093D01*
X123646780Y-89124093D02*
X123551542Y-89219331D01*
X123551542Y-89219331D02*
X123456304Y-89409807D01*
X123456304Y-89409807D02*
X123456304Y-89695522D01*
X123456304Y-89695522D02*
X123551542Y-89885998D01*
X123551542Y-89885998D02*
X123646780Y-89981236D01*
X123646780Y-89981236D02*
X123837257Y-90076474D01*
X123837257Y-90076474D02*
X124408685Y-90076474D01*
X124408685Y-90076474D02*
X124599161Y-89981236D01*
X124599161Y-89981236D02*
X124694400Y-89885998D01*
X124694400Y-89885998D02*
X124789638Y-89695522D01*
X124789638Y-89695522D02*
X124789638Y-89409807D01*
X124789638Y-90933617D02*
X123456304Y-90933617D01*
X123646780Y-90933617D02*
X123551542Y-91028855D01*
X123551542Y-91028855D02*
X123456304Y-91219331D01*
X123456304Y-91219331D02*
X123456304Y-91505046D01*
X123456304Y-91505046D02*
X123551542Y-91695522D01*
X123551542Y-91695522D02*
X123742019Y-91790760D01*
X123742019Y-91790760D02*
X124789638Y-91790760D01*
X123742019Y-91790760D02*
X123551542Y-91885998D01*
X123551542Y-91885998D02*
X123456304Y-92076474D01*
X123456304Y-92076474D02*
X123456304Y-92362188D01*
X123456304Y-92362188D02*
X123551542Y-92552665D01*
X123551542Y-92552665D02*
X123742019Y-92647903D01*
X123742019Y-92647903D02*
X124789638Y-92647903D01*
X124694400Y-95028856D02*
X124789638Y-95219332D01*
X124789638Y-95219332D02*
X124789638Y-95600284D01*
X124789638Y-95600284D02*
X124694400Y-95790761D01*
X124694400Y-95790761D02*
X124503923Y-95885999D01*
X124503923Y-95885999D02*
X124408685Y-95885999D01*
X124408685Y-95885999D02*
X124218209Y-95790761D01*
X124218209Y-95790761D02*
X124122971Y-95600284D01*
X124122971Y-95600284D02*
X124122971Y-95314570D01*
X124122971Y-95314570D02*
X124027733Y-95124094D01*
X124027733Y-95124094D02*
X123837257Y-95028856D01*
X123837257Y-95028856D02*
X123742019Y-95028856D01*
X123742019Y-95028856D02*
X123551542Y-95124094D01*
X123551542Y-95124094D02*
X123456304Y-95314570D01*
X123456304Y-95314570D02*
X123456304Y-95600284D01*
X123456304Y-95600284D02*
X123551542Y-95790761D01*
X124789638Y-97028856D02*
X124694400Y-96838380D01*
X124694400Y-96838380D02*
X124599161Y-96743142D01*
X124599161Y-96743142D02*
X124408685Y-96647904D01*
X124408685Y-96647904D02*
X123837257Y-96647904D01*
X123837257Y-96647904D02*
X123646780Y-96743142D01*
X123646780Y-96743142D02*
X123551542Y-96838380D01*
X123551542Y-96838380D02*
X123456304Y-97028856D01*
X123456304Y-97028856D02*
X123456304Y-97314571D01*
X123456304Y-97314571D02*
X123551542Y-97505047D01*
X123551542Y-97505047D02*
X123646780Y-97600285D01*
X123646780Y-97600285D02*
X123837257Y-97695523D01*
X123837257Y-97695523D02*
X124408685Y-97695523D01*
X124408685Y-97695523D02*
X124599161Y-97600285D01*
X124599161Y-97600285D02*
X124694400Y-97505047D01*
X124694400Y-97505047D02*
X124789638Y-97314571D01*
X124789638Y-97314571D02*
X124789638Y-97028856D01*
X124789638Y-98552666D02*
X123456304Y-98552666D01*
X123646780Y-98552666D02*
X123551542Y-98647904D01*
X123551542Y-98647904D02*
X123456304Y-98838380D01*
X123456304Y-98838380D02*
X123456304Y-99124095D01*
X123456304Y-99124095D02*
X123551542Y-99314571D01*
X123551542Y-99314571D02*
X123742019Y-99409809D01*
X123742019Y-99409809D02*
X124789638Y-99409809D01*
X123742019Y-99409809D02*
X123551542Y-99505047D01*
X123551542Y-99505047D02*
X123456304Y-99695523D01*
X123456304Y-99695523D02*
X123456304Y-99981237D01*
X123456304Y-99981237D02*
X123551542Y-100171714D01*
X123551542Y-100171714D02*
X123742019Y-100266952D01*
X123742019Y-100266952D02*
X124789638Y-100266952D01*
X124789638Y-102076476D02*
X123742019Y-102076476D01*
X123742019Y-102076476D02*
X123551542Y-101981238D01*
X123551542Y-101981238D02*
X123456304Y-101790762D01*
X123456304Y-101790762D02*
X123456304Y-101409809D01*
X123456304Y-101409809D02*
X123551542Y-101219333D01*
X124694400Y-102076476D02*
X124789638Y-101886000D01*
X124789638Y-101886000D02*
X124789638Y-101409809D01*
X124789638Y-101409809D02*
X124694400Y-101219333D01*
X124694400Y-101219333D02*
X124503923Y-101124095D01*
X124503923Y-101124095D02*
X124313447Y-101124095D01*
X124313447Y-101124095D02*
X124122971Y-101219333D01*
X124122971Y-101219333D02*
X124027733Y-101409809D01*
X124027733Y-101409809D02*
X124027733Y-101886000D01*
X124027733Y-101886000D02*
X123932495Y-102076476D01*
X124789638Y-103886000D02*
X122789638Y-103886000D01*
X124694400Y-103886000D02*
X124789638Y-103695524D01*
X124789638Y-103695524D02*
X124789638Y-103314571D01*
X124789638Y-103314571D02*
X124694400Y-103124095D01*
X124694400Y-103124095D02*
X124599161Y-103028857D01*
X124599161Y-103028857D02*
X124408685Y-102933619D01*
X124408685Y-102933619D02*
X123837257Y-102933619D01*
X123837257Y-102933619D02*
X123646780Y-103028857D01*
X123646780Y-103028857D02*
X123551542Y-103124095D01*
X123551542Y-103124095D02*
X123456304Y-103314571D01*
X123456304Y-103314571D02*
X123456304Y-103695524D01*
X123456304Y-103695524D02*
X123551542Y-103886000D01*
X124789638Y-105124095D02*
X124694400Y-104933619D01*
X124694400Y-104933619D02*
X124599161Y-104838381D01*
X124599161Y-104838381D02*
X124408685Y-104743143D01*
X124408685Y-104743143D02*
X123837257Y-104743143D01*
X123837257Y-104743143D02*
X123646780Y-104838381D01*
X123646780Y-104838381D02*
X123551542Y-104933619D01*
X123551542Y-104933619D02*
X123456304Y-105124095D01*
X123456304Y-105124095D02*
X123456304Y-105409810D01*
X123456304Y-105409810D02*
X123551542Y-105600286D01*
X123551542Y-105600286D02*
X123646780Y-105695524D01*
X123646780Y-105695524D02*
X123837257Y-105790762D01*
X123837257Y-105790762D02*
X124408685Y-105790762D01*
X124408685Y-105790762D02*
X124599161Y-105695524D01*
X124599161Y-105695524D02*
X124694400Y-105600286D01*
X124694400Y-105600286D02*
X124789638Y-105409810D01*
X124789638Y-105409810D02*
X124789638Y-105124095D01*
X124789638Y-106647905D02*
X123456304Y-106647905D01*
X123837257Y-106647905D02*
X123646780Y-106743143D01*
X123646780Y-106743143D02*
X123551542Y-106838381D01*
X123551542Y-106838381D02*
X123456304Y-107028857D01*
X123456304Y-107028857D02*
X123456304Y-107219334D01*
X124789638Y-109409810D02*
X123456304Y-109409810D01*
X122789638Y-109409810D02*
X122884876Y-109314572D01*
X122884876Y-109314572D02*
X122980114Y-109409810D01*
X122980114Y-109409810D02*
X122884876Y-109505048D01*
X122884876Y-109505048D02*
X122789638Y-109409810D01*
X122789638Y-109409810D02*
X122980114Y-109409810D01*
X123456304Y-110362191D02*
X124789638Y-110362191D01*
X123646780Y-110362191D02*
X123551542Y-110457429D01*
X123551542Y-110457429D02*
X123456304Y-110647905D01*
X123456304Y-110647905D02*
X123456304Y-110933620D01*
X123456304Y-110933620D02*
X123551542Y-111124096D01*
X123551542Y-111124096D02*
X123742019Y-111219334D01*
X123742019Y-111219334D02*
X124789638Y-111219334D01*
X123456304Y-111981239D02*
X124789638Y-112457429D01*
X124789638Y-112457429D02*
X123456304Y-112933620D01*
X124694400Y-114457430D02*
X124789638Y-114266954D01*
X124789638Y-114266954D02*
X124789638Y-113886001D01*
X124789638Y-113886001D02*
X124694400Y-113695525D01*
X124694400Y-113695525D02*
X124503923Y-113600287D01*
X124503923Y-113600287D02*
X123742019Y-113600287D01*
X123742019Y-113600287D02*
X123551542Y-113695525D01*
X123551542Y-113695525D02*
X123456304Y-113886001D01*
X123456304Y-113886001D02*
X123456304Y-114266954D01*
X123456304Y-114266954D02*
X123551542Y-114457430D01*
X123551542Y-114457430D02*
X123742019Y-114552668D01*
X123742019Y-114552668D02*
X123932495Y-114552668D01*
X123932495Y-114552668D02*
X124122971Y-113600287D01*
X124789638Y-115409811D02*
X123456304Y-115409811D01*
X123837257Y-115409811D02*
X123646780Y-115505049D01*
X123646780Y-115505049D02*
X123551542Y-115600287D01*
X123551542Y-115600287D02*
X123456304Y-115790763D01*
X123456304Y-115790763D02*
X123456304Y-115981240D01*
X124694400Y-116552668D02*
X124789638Y-116743144D01*
X124789638Y-116743144D02*
X124789638Y-117124096D01*
X124789638Y-117124096D02*
X124694400Y-117314573D01*
X124694400Y-117314573D02*
X124503923Y-117409811D01*
X124503923Y-117409811D02*
X124408685Y-117409811D01*
X124408685Y-117409811D02*
X124218209Y-117314573D01*
X124218209Y-117314573D02*
X124122971Y-117124096D01*
X124122971Y-117124096D02*
X124122971Y-116838382D01*
X124122971Y-116838382D02*
X124027733Y-116647906D01*
X124027733Y-116647906D02*
X123837257Y-116552668D01*
X123837257Y-116552668D02*
X123742019Y-116552668D01*
X123742019Y-116552668D02*
X123551542Y-116647906D01*
X123551542Y-116647906D02*
X123456304Y-116838382D01*
X123456304Y-116838382D02*
X123456304Y-117124096D01*
X123456304Y-117124096D02*
X123551542Y-117314573D01*
X124789638Y-118552668D02*
X124694400Y-118362192D01*
X124694400Y-118362192D02*
X124599161Y-118266954D01*
X124599161Y-118266954D02*
X124408685Y-118171716D01*
X124408685Y-118171716D02*
X123837257Y-118171716D01*
X123837257Y-118171716D02*
X123646780Y-118266954D01*
X123646780Y-118266954D02*
X123551542Y-118362192D01*
X123551542Y-118362192D02*
X123456304Y-118552668D01*
X123456304Y-118552668D02*
X123456304Y-118838383D01*
X123456304Y-118838383D02*
X123551542Y-119028859D01*
X123551542Y-119028859D02*
X123646780Y-119124097D01*
X123646780Y-119124097D02*
X123837257Y-119219335D01*
X123837257Y-119219335D02*
X124408685Y-119219335D01*
X124408685Y-119219335D02*
X124599161Y-119124097D01*
X124599161Y-119124097D02*
X124694400Y-119028859D01*
X124694400Y-119028859D02*
X124789638Y-118838383D01*
X124789638Y-118838383D02*
X124789638Y-118552668D01*
X124789638Y-120076478D02*
X123456304Y-120076478D01*
X123837257Y-120076478D02*
X123646780Y-120171716D01*
X123646780Y-120171716D02*
X123551542Y-120266954D01*
X123551542Y-120266954D02*
X123456304Y-120457430D01*
X123456304Y-120457430D02*
X123456304Y-120647907D01*
X126009638Y-94743142D02*
X128009638Y-95409808D01*
X128009638Y-95409808D02*
X126009638Y-96076475D01*
X126009638Y-97124094D02*
X126009638Y-97314571D01*
X126009638Y-97314571D02*
X126104876Y-97505047D01*
X126104876Y-97505047D02*
X126200114Y-97600285D01*
X126200114Y-97600285D02*
X126390590Y-97695523D01*
X126390590Y-97695523D02*
X126771542Y-97790761D01*
X126771542Y-97790761D02*
X127247733Y-97790761D01*
X127247733Y-97790761D02*
X127628685Y-97695523D01*
X127628685Y-97695523D02*
X127819161Y-97600285D01*
X127819161Y-97600285D02*
X127914400Y-97505047D01*
X127914400Y-97505047D02*
X128009638Y-97314571D01*
X128009638Y-97314571D02*
X128009638Y-97124094D01*
X128009638Y-97124094D02*
X127914400Y-96933618D01*
X127914400Y-96933618D02*
X127819161Y-96838380D01*
X127819161Y-96838380D02*
X127628685Y-96743142D01*
X127628685Y-96743142D02*
X127247733Y-96647904D01*
X127247733Y-96647904D02*
X126771542Y-96647904D01*
X126771542Y-96647904D02*
X126390590Y-96743142D01*
X126390590Y-96743142D02*
X126200114Y-96838380D01*
X126200114Y-96838380D02*
X126104876Y-96933618D01*
X126104876Y-96933618D02*
X126009638Y-97124094D01*
X128009638Y-99695523D02*
X128009638Y-98552666D01*
X128009638Y-99124094D02*
X126009638Y-99124094D01*
X126009638Y-99124094D02*
X126295352Y-98933618D01*
X126295352Y-98933618D02*
X126485828Y-98743142D01*
X126485828Y-98743142D02*
X126581066Y-98552666D01*
X127247733Y-102076476D02*
X127247733Y-103600286D01*
X126200114Y-105981238D02*
X126104876Y-106076476D01*
X126104876Y-106076476D02*
X126009638Y-106266952D01*
X126009638Y-106266952D02*
X126009638Y-106743143D01*
X126009638Y-106743143D02*
X126104876Y-106933619D01*
X126104876Y-106933619D02*
X126200114Y-107028857D01*
X126200114Y-107028857D02*
X126390590Y-107124095D01*
X126390590Y-107124095D02*
X126581066Y-107124095D01*
X126581066Y-107124095D02*
X126866780Y-107028857D01*
X126866780Y-107028857D02*
X128009638Y-105886000D01*
X128009638Y-105886000D02*
X128009638Y-107124095D01*
X126009638Y-108362190D02*
X126009638Y-108552667D01*
X126009638Y-108552667D02*
X126104876Y-108743143D01*
X126104876Y-108743143D02*
X126200114Y-108838381D01*
X126200114Y-108838381D02*
X126390590Y-108933619D01*
X126390590Y-108933619D02*
X126771542Y-109028857D01*
X126771542Y-109028857D02*
X127247733Y-109028857D01*
X127247733Y-109028857D02*
X127628685Y-108933619D01*
X127628685Y-108933619D02*
X127819161Y-108838381D01*
X127819161Y-108838381D02*
X127914400Y-108743143D01*
X127914400Y-108743143D02*
X128009638Y-108552667D01*
X128009638Y-108552667D02*
X128009638Y-108362190D01*
X128009638Y-108362190D02*
X127914400Y-108171714D01*
X127914400Y-108171714D02*
X127819161Y-108076476D01*
X127819161Y-108076476D02*
X127628685Y-107981238D01*
X127628685Y-107981238D02*
X127247733Y-107886000D01*
X127247733Y-107886000D02*
X126771542Y-107886000D01*
X126771542Y-107886000D02*
X126390590Y-107981238D01*
X126390590Y-107981238D02*
X126200114Y-108076476D01*
X126200114Y-108076476D02*
X126104876Y-108171714D01*
X126104876Y-108171714D02*
X126009638Y-108362190D01*
X126200114Y-109790762D02*
X126104876Y-109886000D01*
X126104876Y-109886000D02*
X126009638Y-110076476D01*
X126009638Y-110076476D02*
X126009638Y-110552667D01*
X126009638Y-110552667D02*
X126104876Y-110743143D01*
X126104876Y-110743143D02*
X126200114Y-110838381D01*
X126200114Y-110838381D02*
X126390590Y-110933619D01*
X126390590Y-110933619D02*
X126581066Y-110933619D01*
X126581066Y-110933619D02*
X126866780Y-110838381D01*
X126866780Y-110838381D02*
X128009638Y-109695524D01*
X128009638Y-109695524D02*
X128009638Y-110933619D01*
X126009638Y-112743143D02*
X126009638Y-111790762D01*
X126009638Y-111790762D02*
X126962019Y-111695524D01*
X126962019Y-111695524D02*
X126866780Y-111790762D01*
X126866780Y-111790762D02*
X126771542Y-111981238D01*
X126771542Y-111981238D02*
X126771542Y-112457429D01*
X126771542Y-112457429D02*
X126866780Y-112647905D01*
X126866780Y-112647905D02*
X126962019Y-112743143D01*
X126962019Y-112743143D02*
X127152495Y-112838381D01*
X127152495Y-112838381D02*
X127628685Y-112838381D01*
X127628685Y-112838381D02*
X127819161Y-112743143D01*
X127819161Y-112743143D02*
X127914400Y-112647905D01*
X127914400Y-112647905D02*
X128009638Y-112457429D01*
X128009638Y-112457429D02*
X128009638Y-111981238D01*
X128009638Y-111981238D02*
X127914400Y-111790762D01*
X127914400Y-111790762D02*
X127819161Y-111695524D01*
%LPC*%
D11*
X147614000Y-92710000D03*
D12*
X150114000Y-92710000D03*
D11*
X139994000Y-92710000D03*
D12*
X142494000Y-92710000D03*
D11*
X166410000Y-72136000D03*
D12*
X168910000Y-72136000D03*
D11*
X158790000Y-72136000D03*
D12*
X161290000Y-72136000D03*
D11*
X166434900Y-64516000D03*
D12*
X168934900Y-64516000D03*
D11*
X158814900Y-64262000D03*
D12*
X161314900Y-64262000D03*
D13*
X143764000Y-53594000D03*
D14*
X146304000Y-53594000D03*
X148844000Y-53594000D03*
X151384000Y-53594000D03*
X153924000Y-53594000D03*
X156464000Y-53594000D03*
X159004000Y-53594000D03*
X161544000Y-53594000D03*
X164084000Y-53594000D03*
X166624000Y-53594000D03*
D15*
X140462000Y-78994000D03*
D16*
X140462000Y-81534000D03*
X140462000Y-84074000D03*
X140462000Y-86614000D03*
X148082000Y-86614000D03*
X148082000Y-84074000D03*
X148082000Y-81534000D03*
X148082000Y-78994000D03*
D12*
X141209200Y-103886000D03*
D17*
X148829200Y-103886000D03*
D18*
X113620000Y-116840000D03*
D19*
X113620000Y-119380000D03*
X113620000Y-121920000D03*
X113620000Y-124460000D03*
X113620000Y-127000000D03*
X113620000Y-129540000D03*
X113620000Y-132080000D03*
X113620000Y-134620000D03*
X113620000Y-137160000D03*
X113620000Y-139700000D03*
D18*
X134620000Y-116830000D03*
D19*
X134620000Y-119370000D03*
X134620000Y-121910000D03*
X134620000Y-124450000D03*
X134620000Y-126990000D03*
X134620000Y-129530000D03*
X134620000Y-132070000D03*
X134620000Y-134610000D03*
X134620000Y-137150000D03*
X134620000Y-139690000D03*
D12*
X152908000Y-132080000D03*
D17*
X152908000Y-124460000D03*
D12*
X140716000Y-64262000D03*
D17*
X148336000Y-64262000D03*
D12*
X148336000Y-73660000D03*
D17*
X140716000Y-73660000D03*
D12*
X140716000Y-69596000D03*
D17*
X148336000Y-69596000D03*
D12*
X147066000Y-145542000D03*
D17*
X154686000Y-145542000D03*
D15*
X172720000Y-54610000D03*
D16*
X172720000Y-57150000D03*
X172720000Y-59690000D03*
X172720000Y-62230000D03*
X180340000Y-62230000D03*
X180340000Y-59690000D03*
X180340000Y-57150000D03*
X180340000Y-54610000D03*
D15*
X141224000Y-113284000D03*
D16*
X141224000Y-115824000D03*
X141224000Y-118364000D03*
X141224000Y-120904000D03*
X148844000Y-120904000D03*
X148844000Y-118364000D03*
X148844000Y-115824000D03*
X148844000Y-113284000D03*
D12*
X152908000Y-121412000D03*
D17*
X152908000Y-113792000D03*
D19*
X185420000Y-143510000D03*
X185420000Y-140970000D03*
X185420000Y-138430000D03*
X185420000Y-135890000D03*
X185420000Y-133350000D03*
X185420000Y-130810000D03*
X185420000Y-128270000D03*
X185420000Y-125730000D03*
X185420000Y-123190000D03*
X185420000Y-120650000D03*
X185420000Y-118110000D03*
X185420000Y-115570000D03*
X185420000Y-113030000D03*
X185420000Y-110490000D03*
X185420000Y-107950000D03*
X185420000Y-105410000D03*
X185420000Y-102870000D03*
X185420000Y-100330000D03*
X185420000Y-97790000D03*
X185420000Y-95250000D03*
X185420000Y-92710000D03*
X185420000Y-90170000D03*
X185420000Y-87630000D03*
X185420000Y-85090000D03*
X185420000Y-82550000D03*
X185420000Y-80010000D03*
X185420000Y-77470000D03*
X185420000Y-74930000D03*
X185420000Y-72390000D03*
X185420000Y-69850000D03*
X185420000Y-67310000D03*
X185420000Y-64770000D03*
X185420000Y-62230000D03*
X185420000Y-59690000D03*
X185420000Y-57150000D03*
D12*
X152908000Y-110490000D03*
D17*
X152908000Y-102870000D03*
D14*
X142997000Y-140970000D03*
D13*
X140457000Y-140970000D03*
D12*
X154940000Y-96266000D03*
D17*
X154940000Y-88646000D03*
D15*
X172720000Y-66548000D03*
D16*
X172720000Y-69088000D03*
X172720000Y-71628000D03*
X172720000Y-74168000D03*
X180340000Y-74168000D03*
X180340000Y-71628000D03*
X180340000Y-69088000D03*
X180340000Y-66548000D03*
D18*
X113620000Y-68580000D03*
D19*
X113620000Y-71120000D03*
X113620000Y-73660000D03*
X113620000Y-76200000D03*
X113620000Y-78740000D03*
X113620000Y-81280000D03*
X113620000Y-83820000D03*
X113620000Y-86360000D03*
X113620000Y-88900000D03*
X113620000Y-91440000D03*
D18*
X134620000Y-68570000D03*
D19*
X134620000Y-71110000D03*
X134620000Y-73650000D03*
X134620000Y-76190000D03*
X134620000Y-78730000D03*
X134620000Y-81270000D03*
X134620000Y-83810000D03*
X134620000Y-86350000D03*
X134620000Y-88890000D03*
X134620000Y-91430000D03*
D18*
X106680000Y-57150000D03*
D19*
X106680000Y-59690000D03*
X106680000Y-62230000D03*
X106680000Y-64770000D03*
X106680000Y-67310000D03*
X106680000Y-69850000D03*
X106680000Y-72390000D03*
X106680000Y-74930000D03*
X106680000Y-81280000D03*
X106680000Y-83820000D03*
X106680000Y-86360000D03*
X106680000Y-88900000D03*
X106680000Y-91440000D03*
X106680000Y-93980000D03*
X106680000Y-96520000D03*
X106680000Y-99060000D03*
X106680000Y-101600000D03*
X106680000Y-104140000D03*
X106680000Y-106680000D03*
X106680000Y-109220000D03*
X106680000Y-111760000D03*
X106680000Y-114300000D03*
X106680000Y-116840000D03*
X106680000Y-119380000D03*
X106680000Y-121920000D03*
X106680000Y-124460000D03*
X106680000Y-127000000D03*
X106680000Y-129540000D03*
X106680000Y-132080000D03*
X106680000Y-134620000D03*
X106680000Y-137160000D03*
X106680000Y-139700000D03*
X106680000Y-142240000D03*
X106680000Y-144780000D03*
X106680000Y-147320000D03*
D13*
X140457000Y-144780000D03*
D14*
X142997000Y-144780000D03*
D13*
X142033000Y-126528800D03*
D14*
X142033000Y-129068800D03*
X142033000Y-131608800D03*
D12*
X141224000Y-99836000D03*
D17*
X148844000Y-99836000D03*
X153924000Y-140716000D03*
D12*
X146304000Y-140716000D03*
D13*
X146683000Y-126528800D03*
D14*
X146683000Y-129068800D03*
X146683000Y-131608800D03*
D12*
X151892000Y-76454000D03*
D17*
X151892000Y-68834000D03*
D12*
X160528000Y-57658000D03*
D17*
X168148000Y-57658000D03*
D20*
X161280000Y-97790000D03*
D21*
X161280000Y-100330000D03*
X161280000Y-102870000D03*
X161280000Y-105410000D03*
X161280000Y-107950000D03*
X161280000Y-110490000D03*
X161280000Y-113030000D03*
X161280000Y-115570000D03*
X161280000Y-118110000D03*
X161280000Y-120650000D03*
X161280000Y-123190000D03*
X161280000Y-125730000D03*
X161280000Y-128270000D03*
X161280000Y-130810000D03*
X161280000Y-133350000D03*
X161280000Y-135890000D03*
X161280000Y-138430000D03*
X161280000Y-140970000D03*
X161280000Y-143510000D03*
X161280000Y-146050000D03*
X176520000Y-146050000D03*
X176520000Y-143510000D03*
X176520000Y-140970000D03*
X176520000Y-138430000D03*
X176520000Y-135890000D03*
X176520000Y-133350000D03*
X176520000Y-130810000D03*
X176520000Y-128270000D03*
X176520000Y-125730000D03*
X176520000Y-123190000D03*
X176520000Y-120650000D03*
X176520000Y-118110000D03*
X176520000Y-115570000D03*
X176520000Y-113030000D03*
X176520000Y-110490000D03*
X176520000Y-107950000D03*
X176520000Y-105410000D03*
X176520000Y-102870000D03*
X176520000Y-100330000D03*
X176520000Y-97739200D03*
D22*
X170180000Y-101600000D03*
X167640000Y-101600000D03*
D12*
X148844000Y-108712000D03*
D17*
X141224000Y-108712000D03*
%LPD*%
M02*
