G04 #@! TF.GenerationSoftware,KiCad,Pcbnew,7.0.11-rc1*
G04 #@! TF.CreationDate,2025-02-26T22:47:44-03:00*
G04 #@! TF.ProjectId,SomadorInversor_vs2,536f6d61-646f-4724-996e-766572736f72,v04*
G04 #@! TF.SameCoordinates,Original*
G04 #@! TF.FileFunction,Soldermask,Bot*
G04 #@! TF.FilePolarity,Negative*
%FSLAX46Y46*%
G04 Gerber Fmt 4.6, Leading zero omitted, Abs format (unit mm)*
G04 Created by KiCad (PCBNEW 7.0.11-rc1) date 2025-02-26 22:47:44*
%MOMM*%
%LPD*%
G01*
G04 APERTURE LIST*
%ADD10R,1.600000X1.600000*%
%ADD11C,1.600000*%
%ADD12R,1.700000X1.700000*%
%ADD13O,1.700000X1.700000*%
%ADD14R,1.371600X1.371600*%
%ADD15C,1.371600*%
%ADD16O,1.600000X1.600000*%
%ADD17R,2.500000X1.800000*%
%ADD18O,2.500000X1.800000*%
%ADD19R,2.250000X1.727200*%
%ADD20O,2.250000X1.727200*%
%ADD21O,1.727200X1.727200*%
G04 APERTURE END LIST*
D10*
X147614000Y-92710000D03*
D11*
X150114000Y-92710000D03*
D10*
X139994000Y-92710000D03*
D11*
X142494000Y-92710000D03*
D10*
X166410000Y-72136000D03*
D11*
X168910000Y-72136000D03*
D10*
X158790000Y-72136000D03*
D11*
X161290000Y-72136000D03*
D10*
X166434900Y-64516000D03*
D11*
X168934900Y-64516000D03*
D10*
X158814900Y-64262000D03*
D11*
X161314900Y-64262000D03*
D12*
X143764000Y-53594000D03*
D13*
X146304000Y-53594000D03*
X148844000Y-53594000D03*
X151384000Y-53594000D03*
X153924000Y-53594000D03*
X156464000Y-53594000D03*
X159004000Y-53594000D03*
X161544000Y-53594000D03*
X164084000Y-53594000D03*
X166624000Y-53594000D03*
D14*
X140462000Y-78994000D03*
D15*
X140462000Y-81534000D03*
X140462000Y-84074000D03*
X140462000Y-86614000D03*
X148082000Y-86614000D03*
X148082000Y-84074000D03*
X148082000Y-81534000D03*
X148082000Y-78994000D03*
D11*
X141209200Y-103886000D03*
D16*
X148829200Y-103886000D03*
D17*
X113620000Y-116840000D03*
D18*
X113620000Y-119380000D03*
X113620000Y-121920000D03*
X113620000Y-124460000D03*
X113620000Y-127000000D03*
X113620000Y-129540000D03*
X113620000Y-132080000D03*
X113620000Y-134620000D03*
X113620000Y-137160000D03*
X113620000Y-139700000D03*
D17*
X134620000Y-116830000D03*
D18*
X134620000Y-119370000D03*
X134620000Y-121910000D03*
X134620000Y-124450000D03*
X134620000Y-126990000D03*
X134620000Y-129530000D03*
X134620000Y-132070000D03*
X134620000Y-134610000D03*
X134620000Y-137150000D03*
X134620000Y-139690000D03*
D11*
X152908000Y-132080000D03*
D16*
X152908000Y-124460000D03*
D11*
X140716000Y-64262000D03*
D16*
X148336000Y-64262000D03*
D11*
X148336000Y-73660000D03*
D16*
X140716000Y-73660000D03*
D11*
X140716000Y-69596000D03*
D16*
X148336000Y-69596000D03*
D11*
X147066000Y-145542000D03*
D16*
X154686000Y-145542000D03*
D14*
X172720000Y-54610000D03*
D15*
X172720000Y-57150000D03*
X172720000Y-59690000D03*
X172720000Y-62230000D03*
X180340000Y-62230000D03*
X180340000Y-59690000D03*
X180340000Y-57150000D03*
X180340000Y-54610000D03*
D14*
X141224000Y-113284000D03*
D15*
X141224000Y-115824000D03*
X141224000Y-118364000D03*
X141224000Y-120904000D03*
X148844000Y-120904000D03*
X148844000Y-118364000D03*
X148844000Y-115824000D03*
X148844000Y-113284000D03*
D11*
X152908000Y-121412000D03*
D16*
X152908000Y-113792000D03*
D18*
X185420000Y-143510000D03*
X185420000Y-140970000D03*
X185420000Y-138430000D03*
X185420000Y-135890000D03*
X185420000Y-133350000D03*
X185420000Y-130810000D03*
X185420000Y-128270000D03*
X185420000Y-125730000D03*
X185420000Y-123190000D03*
X185420000Y-120650000D03*
X185420000Y-118110000D03*
X185420000Y-115570000D03*
X185420000Y-113030000D03*
X185420000Y-110490000D03*
X185420000Y-107950000D03*
X185420000Y-105410000D03*
X185420000Y-102870000D03*
X185420000Y-100330000D03*
X185420000Y-97790000D03*
X185420000Y-95250000D03*
X185420000Y-92710000D03*
X185420000Y-90170000D03*
X185420000Y-87630000D03*
X185420000Y-85090000D03*
X185420000Y-82550000D03*
X185420000Y-80010000D03*
X185420000Y-77470000D03*
X185420000Y-74930000D03*
X185420000Y-72390000D03*
X185420000Y-69850000D03*
X185420000Y-67310000D03*
X185420000Y-64770000D03*
X185420000Y-62230000D03*
X185420000Y-59690000D03*
X185420000Y-57150000D03*
D11*
X152908000Y-110490000D03*
D16*
X152908000Y-102870000D03*
D13*
X142997000Y-140970000D03*
D12*
X140457000Y-140970000D03*
D11*
X154940000Y-96266000D03*
D16*
X154940000Y-88646000D03*
D14*
X172720000Y-66548000D03*
D15*
X172720000Y-69088000D03*
X172720000Y-71628000D03*
X172720000Y-74168000D03*
X180340000Y-74168000D03*
X180340000Y-71628000D03*
X180340000Y-69088000D03*
X180340000Y-66548000D03*
D17*
X113620000Y-68580000D03*
D18*
X113620000Y-71120000D03*
X113620000Y-73660000D03*
X113620000Y-76200000D03*
X113620000Y-78740000D03*
X113620000Y-81280000D03*
X113620000Y-83820000D03*
X113620000Y-86360000D03*
X113620000Y-88900000D03*
X113620000Y-91440000D03*
D17*
X134620000Y-68570000D03*
D18*
X134620000Y-71110000D03*
X134620000Y-73650000D03*
X134620000Y-76190000D03*
X134620000Y-78730000D03*
X134620000Y-81270000D03*
X134620000Y-83810000D03*
X134620000Y-86350000D03*
X134620000Y-88890000D03*
X134620000Y-91430000D03*
D17*
X106680000Y-57150000D03*
D18*
X106680000Y-59690000D03*
X106680000Y-62230000D03*
X106680000Y-64770000D03*
X106680000Y-67310000D03*
X106680000Y-69850000D03*
X106680000Y-72390000D03*
X106680000Y-74930000D03*
X106680000Y-81280000D03*
X106680000Y-83820000D03*
X106680000Y-86360000D03*
X106680000Y-88900000D03*
X106680000Y-91440000D03*
X106680000Y-93980000D03*
X106680000Y-96520000D03*
X106680000Y-99060000D03*
X106680000Y-101600000D03*
X106680000Y-104140000D03*
X106680000Y-106680000D03*
X106680000Y-109220000D03*
X106680000Y-111760000D03*
X106680000Y-114300000D03*
X106680000Y-116840000D03*
X106680000Y-119380000D03*
X106680000Y-121920000D03*
X106680000Y-124460000D03*
X106680000Y-127000000D03*
X106680000Y-129540000D03*
X106680000Y-132080000D03*
X106680000Y-134620000D03*
X106680000Y-137160000D03*
X106680000Y-139700000D03*
X106680000Y-142240000D03*
X106680000Y-144780000D03*
X106680000Y-147320000D03*
D12*
X140457000Y-144780000D03*
D13*
X142997000Y-144780000D03*
D12*
X142033000Y-126528800D03*
D13*
X142033000Y-129068800D03*
X142033000Y-131608800D03*
D11*
X141224000Y-99836000D03*
D16*
X148844000Y-99836000D03*
X153924000Y-140716000D03*
D11*
X146304000Y-140716000D03*
D12*
X146683000Y-126528800D03*
D13*
X146683000Y-129068800D03*
X146683000Y-131608800D03*
D11*
X151892000Y-76454000D03*
D16*
X151892000Y-68834000D03*
D11*
X160528000Y-57658000D03*
D16*
X168148000Y-57658000D03*
D19*
X161280000Y-97790000D03*
D20*
X161280000Y-100330000D03*
X161280000Y-102870000D03*
X161280000Y-105410000D03*
X161280000Y-107950000D03*
X161280000Y-110490000D03*
X161280000Y-113030000D03*
X161280000Y-115570000D03*
X161280000Y-118110000D03*
X161280000Y-120650000D03*
X161280000Y-123190000D03*
X161280000Y-125730000D03*
X161280000Y-128270000D03*
X161280000Y-130810000D03*
X161280000Y-133350000D03*
X161280000Y-135890000D03*
X161280000Y-138430000D03*
X161280000Y-140970000D03*
X161280000Y-143510000D03*
X161280000Y-146050000D03*
X176520000Y-146050000D03*
X176520000Y-143510000D03*
X176520000Y-140970000D03*
X176520000Y-138430000D03*
X176520000Y-135890000D03*
X176520000Y-133350000D03*
X176520000Y-130810000D03*
X176520000Y-128270000D03*
X176520000Y-125730000D03*
X176520000Y-123190000D03*
X176520000Y-120650000D03*
X176520000Y-118110000D03*
X176520000Y-115570000D03*
X176520000Y-113030000D03*
X176520000Y-110490000D03*
X176520000Y-107950000D03*
X176520000Y-105410000D03*
X176520000Y-102870000D03*
X176520000Y-100330000D03*
X176520000Y-97739200D03*
D21*
X170180000Y-101600000D03*
X167640000Y-101600000D03*
D11*
X148844000Y-108712000D03*
D16*
X141224000Y-108712000D03*
M02*
